<svg xmlns="http://www.w3.org/2000/svg" overflow="visible" width="16" height="16" viewBox="0 0 25.6 25.6" fill-rule="evenodd" stroke-width=".501" stroke-linejoin="bevel"><g font-size="16" font-family="Times New Roman" fill="none" stroke-miterlimit="79.84"><path d="M0-724.399V25.6h569.999v-749.999H0z" stroke-width="0"/><g fill="#ff6666" stroke-width=".035" stroke-linejoin="miter"><path d="M5.07 16.48c-.439.495-.985 1.097-1.534 1.697-.71-1.146-.932-2.57-.932-2.57l.055-.165a10.02 10.02 0 0 1 2.738-8.59c4.105-4.106 11.326-2.353 16.796-5.088 1.095 5.47-3.282 8.207-3.282 8.207s1.645 1.642 4.377.55c0 2.188-.327 6.563-3.994 10.227-2.463 2.463-5.961 3.338-9.135 2.63 0 0-1.042-.277-2.138-.824 1.753-1.527 3.174-2.788 3.778-3.282l.272-.274c.602-.6.932-1.31.987-2.078a3.653 3.653 0 0 0-.987-2.903c-1.365-1.366-3.61-1.366-4.98 0 0 0-.107.113-.274.279-.219.49-.874 1.254-1.748 2.184"/><path d="M5.07 16.48c-.439.495-.985 1.097-1.534 1.697-.71-1.146-.932-2.57-.932-2.57l.055-.165a10.02 10.02 0 0 1 2.738-8.59c4.105-4.106 11.326-2.353 16.796-5.088 1.095 5.47-3.282 8.207-3.282 8.207s1.645 1.642 4.377.55c0 2.188-.327 6.563-3.994 10.227-2.463 2.463-5.961 3.338-9.135 2.63 0 0-1.042-.277-2.138-.824 1.753-1.527 3.174-2.788 3.778-3.282l.272-.274c.602-.6.932-1.31.987-2.078a3.653 3.653 0 0 0-.987-2.903c-1.365-1.366-3.61-1.366-4.98 0 0 0-.107.113-.274.279-.219.49-.874 1.254-1.748 2.184"/></g></g></svg>
